<svg width="931" height="1024" viewBox="0 0 931 1024" fill="none" xmlns="http://www.w3.org/2000/svg">
<path d="M582.039 13.4017C652.585 30.8828 715.242 62.1993 769.49 108.215C842.717 170.329 893.74 247.618 918.459 341.19C925.678 368.514 932.285 395.756 930.786 424.641C929.422 450.922 919.193 472.688 899.067 487.824C758.586 593.474 617.568 698.408 476.655 803.483C382.436 873.74 288.118 943.866 193.815 1014.01C178.191 1025.63 165.154 1027.27 154.288 1018.1C141.668 1007.44 143.251 994.388 147.944 979.964C158.861 946.405 168.974 912.571 178.694 878.643C185.413 855.191 177.895 834.35 158.387 819.716C124.415 794.232 98.6734 761.263 75.5471 726.412C41.8785 675.673 19.2794 620.061 8.14056 560.027C-0.605769 512.889 -1.94441 465.617 2.40783 417.75C7.90351 357.308 25.3476 300.722 53.2949 247.424C69.9373 215.685 91.1791 186.949 114.702 159.488C155.606 111.736 204.014 74.7083 260.294 47.4746C316.892 20.0871 376.137 4.24558 439.397 0.734459C487.5 -1.93536 534.227 2.76072 582.039 13.4017ZM500.533 215.956C487.754 215.173 476.083 219.283 464.443 223.855C388.72 253.598 355.742 349.26 421.982 417.802C433.354 429.569 435.319 441.167 431.556 455.614C430.463 459.811 428.815 464.606 433.199 468.12C438.086 472.038 441.815 467.916 445.124 465.446C502.073 422.941 559 380.406 615.677 337.542C625.272 330.286 627.496 320.445 623.976 308.184C616.114 280.804 600.866 258.444 579.087 240.933C556.978 223.157 531.498 213.303 500.533 215.956ZM267.111 500.361C290.266 483.148 313.437 465.956 336.568 448.71C343.628 443.446 349.599 437.742 346.365 427.508C336.761 397.121 317.326 375.372 285.957 369.479C252.343 363.164 225.415 377.342 207.478 406.512C191.119 433.116 194.246 459.338 210.403 485.272C216.314 494.761 226.183 501.378 228.239 514.016C229.416 521.255 237.394 522.547 243.968 517.81C251.224 512.581 258.177 506.93 267.111 500.361ZM530.705 504.945C528.13 528.9 545.898 543.553 556.813 561.246C559.02 564.825 563.525 562.21 566.228 560.229C588.295 544.057 610.145 527.588 632.24 511.456C638.661 506.768 639.654 500.692 636.965 494.3C630.189 478.191 619.815 464.918 602.847 458.707C571.637 447.282 539.879 467.155 530.705 504.945Z" fill="#EB5F3E"/>
</svg>
