<svg width="1300" height="546" viewBox="0 0 1300 546" fill="none" xmlns="http://www.w3.org/2000/svg">
<path d="M1136.98 6.26135C1169.94 14.4286 1199.21 29.0598 1224.55 50.5587C1258.76 79.5785 1282.59 115.688 1294.14 159.405C1297.51 172.171 1300.6 184.899 1299.9 198.394C1299.26 210.673 1294.48 220.842 1285.08 227.914C1219.46 277.274 1153.58 326.299 1087.75 375.391C1043.74 408.215 999.68 440.978 955.627 473.751C948.328 479.18 942.239 479.946 937.162 475.659C931.267 470.682 932.007 464.582 934.199 457.844C939.298 442.165 944.023 426.357 948.564 410.506C951.702 399.549 948.19 389.812 939.077 382.975C923.207 371.069 911.182 355.666 900.379 339.383C884.651 315.678 874.094 289.695 868.89 261.647C864.804 239.624 864.179 217.538 866.212 195.175C868.779 166.936 876.928 140.498 889.984 115.597C897.758 100.769 907.681 87.3433 918.67 74.5134C937.778 52.2038 960.392 34.904 986.683 22.1803C1013.12 9.38477 1040.8 1.98355 1070.35 0.343142C1092.82 -0.90421 1114.65 1.28982 1136.98 6.26135ZM1098.91 100.896C1092.94 100.53 1087.49 102.45 1082.05 104.586C1046.68 118.482 1031.27 163.176 1062.21 195.199C1067.53 200.697 1068.44 206.115 1066.69 212.865C1066.18 214.826 1065.41 217.066 1067.45 218.708C1069.74 220.538 1071.48 218.612 1073.03 217.458C1099.63 197.6 1126.22 177.728 1152.7 157.701C1157.18 154.311 1158.22 149.713 1156.57 143.985C1152.9 131.193 1145.78 120.746 1135.61 112.565C1125.28 104.26 1113.37 99.6559 1098.91 100.896ZM989.867 233.771C1000.68 225.729 1011.51 217.697 1022.31 209.639C1025.61 207.18 1028.4 204.515 1026.89 199.734C1022.4 185.537 1013.32 175.376 998.671 172.622C982.969 169.672 970.389 176.296 962.01 189.924C954.368 202.354 955.829 214.605 963.376 226.721C966.138 231.155 970.748 234.246 971.708 240.15C972.258 243.533 975.985 244.136 979.056 241.923C982.446 239.48 985.693 236.84 989.867 233.771ZM1113 235.913C1111.8 247.105 1120.1 253.95 1125.2 262.217C1126.23 263.889 1128.34 262.667 1129.6 261.742C1139.91 254.186 1150.11 246.492 1160.44 238.954C1163.43 236.764 1163.9 233.926 1162.64 230.939C1159.48 223.413 1154.63 217.212 1146.7 214.31C1132.12 208.972 1117.29 218.257 1113 235.913Z" fill="#EB5F3E"/>
<path d="M614.244 249.158C634.44 234.387 649.628 237.545 667.794 260.28C671.675 257.559 675.511 254.667 679.543 252.079C693.132 243.358 707.87 238.983 724.175 238.167C746.363 237.056 766.456 241.848 784.39 255.046C806.395 271.239 819.562 293.268 825.215 319.609C830.716 345.242 830.228 370.944 821.168 395.829C808.139 431.617 784.008 456.229 745.671 462.513C720.645 466.615 695.982 462.678 674.937 446.246C673.843 445.392 672.604 444.708 671.375 444.053C670.796 443.744 670.082 443.69 669.401 443.513C666.818 446.314 667.462 449.697 667.454 452.86C667.399 474.307 666.979 495.766 667.58 517.196C667.977 531.342 654.388 545.483 638.149 545.729C620.461 545.997 606.498 533.629 606.349 517.455C606.174 498.341 606.301 479.225 606.301 460.109C606.303 397.401 606.405 334.693 606.193 271.985C606.163 263.351 608.273 255.969 614.244 249.158ZM760.33 326.716C758.062 321.592 755.434 316.662 751.827 312.349C732.57 289.324 701.287 288.479 681.774 310.014C661.403 332.495 660.668 365.005 679.49 388.731C698.346 412.501 729.765 413.627 749.924 391.329C766.315 373.198 769.913 351.067 760.33 326.716Z" fill="#2D2A4D"/>
<path d="M285.963 449.506C274.008 462.178 256.378 464.73 243.47 455.391C235.281 449.466 231.405 440.913 231.401 430.736C231.389 400.673 231.554 370.609 231.316 340.549C231.217 327.948 227.911 316.518 218.606 306.979C200.978 288.908 171.2 290.749 155.835 311.4C149.757 319.57 146.777 328.855 146.907 339.409C147.269 368.768 147.196 398.136 146.952 427.497C146.839 441.124 142.59 453.276 128.656 458.372C109.601 465.342 89.3428 457.663 85.7635 434.597C84.6462 427.397 84.5519 420.265 84.55 413.075C84.5297 334.073 84.4806 255.071 84.6156 176.069C84.6307 167.261 85.6207 158.47 91.0023 150.839C97.168 142.096 110.861 136.944 121.989 139.419C133.508 141.981 143.573 151.944 145.594 162.576C146.684 168.307 147.102 174.043 147.078 179.881C146.973 206.192 147.032 232.505 147.032 260.059C152.779 256.174 157.478 252.668 162.484 249.675C175.096 242.134 188.693 238.248 203.542 238.345C217.973 238.44 232.223 238.235 245.912 244.309C268.068 254.138 281.775 270.944 288.154 293.897C291.325 305.309 292.59 317.07 292.55 328.982C292.438 362.539 292.522 396.098 292.508 429.656C292.505 436.792 291.125 443.52 285.963 449.506Z" fill="#2D2A4D"/>
<path d="M366.078 453.346C334.258 437.582 316.055 412.361 309.6 378.06C303.992 348.255 307.187 319.68 321.051 292.772C336.632 262.533 361.491 243.191 395.292 238.975C445.001 232.775 485.103 253.871 505.27 302.044C511.69 317.38 513.124 333.442 514.721 349.539C515.79 360.317 509.66 369.046 498.356 373.694C477.287 382.356 455.339 388.378 433.5 394.705C424.482 397.317 415.48 399.982 406.537 403.528C412.774 407.965 419.636 406.338 426.172 405.755C437.779 404.719 448.739 400.748 459.909 397.664C467.764 395.495 475.935 395.116 483.705 398.964C493.158 403.646 497.732 411.167 498.22 421.722C498.784 433.899 495.608 443.777 483.862 449.461C469.229 456.543 453.41 459.42 437.584 461.52C416.046 464.379 394.522 463.979 373.733 456.274C371.339 455.387 368.98 454.404 366.078 453.346ZM441.208 310.074C433.035 300.189 422.363 294.275 409.734 294.703C395.011 295.201 382.963 302.064 375.507 315.358C367.514 329.61 367.897 343.768 377.359 357.191C382.314 364.221 389.638 370.182 383.952 380.368C387.396 380.325 388.889 378.653 390.492 377.468C407.294 365.043 424.04 352.544 440.767 340.02C451.037 332.33 451.752 329.521 446.275 317.892C445.099 315.396 443.38 313.157 441.208 310.074Z" fill="#2D2A4D"/>
<path d="M591.886 202.533C591.885 276.877 591.892 350.521 591.87 424.166C591.868 431.4 591.135 438.504 587.78 445.126C581.41 457.694 566.749 463.733 551.27 460.062C539.375 457.241 529.411 444.551 529.403 431.686C529.349 344.059 529.341 256.431 529.403 168.804C529.414 153.652 541.597 140.042 555.534 139.127C574.472 137.882 587.433 147.093 590.574 163.54C593.006 176.276 591.296 189.078 591.886 202.533Z" fill="#2D2A4D"/>
<path d="M3.39514 412.357C3.39549 366.698 3.33955 321.736 3.44745 276.775C3.46765 268.358 5.03223 260.322 9.91713 252.997C15.5519 244.547 29.5509 237.261 45.1361 241.9C58.3855 245.843 65.7751 258.757 65.8052 268.759C65.97 323.505 65.9924 378.252 65.8195 432.997C65.7718 448.111 53.077 459.801 38.0654 460.525C14.0594 461.684 4.74061 447.202 3.44773 427.029C3.15033 422.389 3.39845 417.713 3.39514 412.357Z" fill="#2D2A4D"/>
<path d="M10.7981 211.04C-1.67177 200.174 -1.15624 186.122 1.6417 172.709C4.52854 158.871 15.2881 151.302 28.921 149.259C43.2417 147.112 55.5582 151.687 64.3155 163.756C73.8832 176.942 71.6785 199.604 60.1696 210.679C47.6121 222.764 22.5335 223.354 10.7981 211.04Z" fill="#EB5F3E"/>
</svg>
